<?xml version="1.0" encoding="UTF-8"?>
<svg width="512" height="512" viewBox="0 0 512 512" fill="none" xmlns="http://www.w3.org/2000/svg">
    <!-- 面具主体 -->
    <path d="M256 40C137.2 40 40 137.2 40 256C40 374.8 137.2 472 256 472C374.8 472 472 374.8 472 256C472 137.2 374.8 40 256 40Z" fill="#FFB627"/>
    
    <!-- 左眼 -->
    <path d="M180 200C180 177.9 197.9 160 220 160C242.1 160 260 177.9 260 200C260 222.1 242.1 240 220 240C197.9 240 180 222.1 180 200Z" fill="#2F2F2F"/>
    
    <!-- 右眼 -->
    <path d="M292 200C292 177.9 309.9 160 332 160C354.1 160 372 177.9 372 200C372 222.1 354.1 240 332 240C309.9 240 292 222.1 292 200Z" fill="#2F2F2F"/>
    
    <!-- 装饰线条 -->
    <path d="M150 300C200 340 312 340 362 300" stroke="#2F2F2F" stroke-width="20" stroke-linecap="round"/>
    
    <!-- 装饰图案 -->
    <path d="M256 80C176.5 80 112 144.5 112 224C112 303.5 176.5 368 256 368C335.5 368 400 303.5 400 224C400 144.5 335.5 80 256 80ZM256 352C185.3 352 128 294.7 128 224C128 153.3 185.3 96 256 96C326.7 96 384 153.3 384 224C384 294.7 326.7 352 256 352Z" fill="#2F2F2F" fill-opacity="0.2"/>
    
    <!-- 面具装饰点 -->
    <circle cx="180" cy="280" r="8" fill="#2F2F2F"/>
    <circle cx="332" cy="280" r="8" fill="#2F2F2F"/>
    <circle cx="256" cy="320" r="12" fill="#2F2F2F"/>
</svg> 