<?xml version="1.0" encoding="UTF-8"?>
<svg width="32" height="32" viewBox="0 0 32 32" fill="none" xmlns="http://www.w3.org/2000/svg">
    <!-- Face outline -->
    <path d="M16 4c6.627 0 12 5.373 12 12s-5.373 12-12 12S4 22.627 4 16 9.373 4 16 4z" stroke="#FFB627" stroke-width="2"/>
    
    <!-- Face features -->
    <circle cx="12" cy="14" r="1.5" fill="#FFB627"/> <!-- Left eye -->
    <circle cx="20" cy="14" r="1.5" fill="#FFB627"/> <!-- Right eye -->
    <path d="M12 20c0 0 2 2 4 2s4-2 4-2" stroke="#FFB627" stroke-width="1.5" stroke-linecap="round"/> <!-- Smile -->
    
    <!-- Paint elements -->
    <path d="M8 8c0 0 2-2 4-2s4 2 4 2" stroke="#FFB627" stroke-width="1.5" stroke-linecap="round"/> <!-- Top paint stroke -->
    <path d="M16 8c0 0 2-2 4-2s4 2 4 2" stroke="#FFB627" stroke-width="1.5" stroke-linecap="round"/> <!-- Top paint stroke -->
    <path d="M6 24c0 0 2-3 10-3s10 3 10 3" stroke="#FFB627" stroke-width="1.5" stroke-linecap="round"/> <!-- Bottom paint stroke -->
    
    <!-- Decorative elements -->
    <circle cx="16" cy="16" r="1" fill="#FFB627"/> <!-- Center dot -->
    <path d="M10 12c0 0 1 1 2 1s2-1 2-1" stroke="#FFB627" stroke-width="1" stroke-linecap="round"/> <!-- Left decorative -->
    <path d="M22 12c0 0 1 1 2 1s2-1 2-1" stroke="#FFB627" stroke-width="1" stroke-linecap="round"/> <!-- Right decorative -->
</svg> 